HIERARCHY
ROOT Hips
{
	OFFSET -3.958830 18.904000 13.208200
	CHANNELS 6 Xposition Yposition Zposition Zrotation Yrotation Xrotation 
	JOINT LHipJoint
	{
		OFFSET 0.000000 0.000000 0.000000
		CHANNELS 3 Zrotation Yrotation Xrotation
		JOINT LeftUpLeg
		{
			OFFSET 1.800000 -1.400000 0.085000
			CHANNELS 3 Zrotation Yrotation Xrotation
			JOINT LeftLeg
			{
				OFFSET 2.215000 -6.000000 0.000000
				CHANNELS 3 Zrotation Yrotation Xrotation
				JOINT LeftFoot
				{
					OFFSET 2.500000 -6.900000 0.000000
					CHANNELS 3 Zrotation Yrotation Xrotation
					JOINT LeftToeBase
					{
						OFFSET 0.200000 -0.500000 1.950000
						CHANNELS 3 Zrotation Yrotation Xrotation
						End Site
						{
							OFFSET 0.000000 0.000000 0.000000
						}
					}
				}
			}
		}
	}
	JOINT RHipJoint
	{
		OFFSET 0.000000 0.000000 0.000000
		CHANNELS 3 Zrotation Yrotation Xrotation
		JOINT RightUpLeg
		{
			OFFSET -1.800000 -1.400000 0.085000
			CHANNELS 3 Zrotation Yrotation Xrotation
			JOINT RightLeg
			{
				OFFSET -2.215000 -6.000000 0.000000
				CHANNELS 3 Zrotation Yrotation Xrotation
				JOINT RightFoot
				{
					OFFSET -2.500000 -6.900000 0.000000
					CHANNELS 3 Zrotation Yrotation Xrotation
					JOINT RightToeBase
					{
						OFFSET -0.200000 -0.500000 1.950000
						CHANNELS 3 Zrotation Yrotation Xrotation
						End Site
						{
							OFFSET 0.000000 0.000000 0.000000
						}
					}
				}
			}
		}
	}
	JOINT LowerBack
	{
		OFFSET 0.000000 0.000000 0.000000
		CHANNELS 3 Zrotation Yrotation Xrotation
		JOINT Spine
		{
			OFFSET -0.087000 1.940000 -0.288900
			CHANNELS 3 Zrotation Yrotation Xrotation
			JOINT Spine1
			{
				OFFSET 0.000000 1.950000 0.060000
				CHANNELS 3 Zrotation Yrotation Xrotation
				JOINT Neck
				{
					OFFSET 0.000000 0.000000 0.000000
					CHANNELS 3 Zrotation Yrotation Xrotation
					JOINT Neck1
					{
						OFFSET 0.000000 1.600000 0.340000
						CHANNELS 3 Zrotation Yrotation Xrotation
						JOINT Head
						{
							OFFSET 0.000000 1.667000 -0.240000
							CHANNELS 3 Zrotation Yrotation Xrotation
							End Site
							{
								OFFSET 0.000000 0.000000 0.000000
							}
						}
					}
				}
				JOINT LeftShoulder
				{
					OFFSET 0.000000 0.000000 0.000000
					CHANNELS 3 Zrotation Yrotation Xrotation
					JOINT LeftArm
					{
						OFFSET 2.700000 1.550000 -0.730000
						CHANNELS 3 Zrotation Yrotation Xrotation
						JOINT LeftForeArm
						{
							OFFSET 5.450000 0.000000 0.000000
							CHANNELS 3 Zrotation Yrotation Xrotation
							JOINT LeftHand
							{
								OFFSET 3.450000 0.000000 0.000000
								CHANNELS 3 Zrotation Yrotation Xrotation
								JOINT LeftHandIndex1
								{
									OFFSET 0.750000 0.000000 0.000000
									CHANNELS 3 Zrotation Yrotation Xrotation
									End Site
									{
										OFFSET 0.000000 0.000000 0.000000
									}
								}
							}
						}
					}
				}
				JOINT RightShoulder
				{
					OFFSET 0.000000 0.000000 0.000000
					CHANNELS 3 Zrotation Yrotation Xrotation
					JOINT RightArm
					{
						OFFSET -2.700000 1.550000 -0.730000
						CHANNELS 3 Zrotation Yrotation Xrotation
						JOINT RightForeArm
						{
							OFFSET -5.450000 0.000000 0.000000
							CHANNELS 3 Zrotation Yrotation Xrotation
							JOINT RightHand
							{
								OFFSET -3.450000 0.000000 0.000000
								CHANNELS 3 Zrotation Yrotation Xrotation
								JOINT RightHandIndex1
								{
									OFFSET -0.750000 0.000000 0.000000
									CHANNELS 3 Zrotation Yrotation Xrotation
									End Site
									{
										OFFSET 0.000000 0.000000 0.000000
									}
								}
							}
						}
					}
				}
			}
		}
	}
}
MOTION
Frames: 7
Frame Time: 0.016667
0.819930 16.954720 -0.698560 -3.576410 2.756829 0.556899 -15.629874 12.569726 3.200518 2.030553 1.406738 2.605651 -9.042315 4.147959 -4.415874 0.205017 4.696473 3.269580 0.021960 -0.124910 -0.060220 17.902186 -10.245455 2.768933 -26.143596 -0.588440 -12.245268 2.859701 -3.771899 -0.049822 -0.224053 -4.176961 2.944820 -0.039080 0.425720 0.238800 -2.465198 -1.464384 -7.568476 -4.202258 1.716039 1.932784 7.310633 -0.066390 13.601323 1.170520 2.647204 -15.952738 3.590248 -0.418369 36.405218 -4.357910 3.060740 1.537620 -21.422412 -27.004357 10.175995 -36.875034 -8.267103 -1.286445 -36.472171 -24.050102 4.775758 -3.929476 3.180629 0.132170 0.347280 -0.146520 0.169110 20.448142 26.704128 12.384144 37.001378 4.411027 -4.512026 24.074030 25.015653 2.191373 2.125596 -1.504741 -0.135490 0.150970 0.107710 -0.047720 
0.834660 16.946800 -0.694130 -3.574062 2.814679 0.581971 -15.617075 12.555413 3.199937 1.995032 1.445180 2.659846 -9.154451 4.174908 -4.409613 0.210571 4.712711 3.274511 0.007900 -0.138300 -0.079080 17.914918 -10.257167 2.773725 -26.328303 -0.602908 -12.378740 2.853764 -3.789641 0.051019 -0.212438 -4.187013 2.950343 -0.044170 0.447970 0.232780 -2.503215 -1.421984 -7.577290 -3.820760 1.750665 1.945981 7.112536 0.011846 13.696811 1.140565 2.537936 -16.025663 3.394855 -0.487533 36.132493 -4.166150 2.746760 1.822270 -21.361495 -27.182896 10.216972 -37.007992 -8.386508 -1.326074 -36.517801 -24.486278 4.900093 -3.937862 3.173125 0.122440 0.358140 -0.161640 0.174170 20.429418 26.932795 12.516795 36.829862 4.345017 -4.536229 23.663393 25.144379 2.146562 2.117813 -1.498642 -0.142890 0.163860 0.115390 -0.039870 
0.851260 16.944310 -0.688910 -3.395715 2.974632 0.555279 -15.625716 12.561227 3.211891 1.775690 1.510462 2.767267 -9.170934 4.185445 -4.426348 0.210500 4.708996 3.269297 0.004520 -0.143600 -0.078000 17.904426 -10.254187 2.780696 -26.549984 -0.625937 -12.398409 2.664067 -3.784801 0.032517 -0.212313 -4.184903 2.950669 -0.049340 0.438930 0.226940 -2.477295 -1.436239 -7.606757 -3.883706 1.744710 2.011385 7.068642 0.015225 13.695817 1.185156 2.515883 -16.201657 3.308810 -0.596492 36.546876 -4.149150 2.586660 1.794250 -21.804102 -27.438600 10.303211 -36.673981 -8.205885 -1.341618 -36.761478 -24.397569 4.921668 -3.928140 3.167212 0.129500 0.350210 -0.159420 0.166290 20.801034 27.203587 12.692141 36.441097 4.075152 -4.582778 23.091113 25.160718 2.094976 2.112729 -1.484477 -0.143060 0.164500 0.120260 -0.044350 
0.866420 16.940330 -0.684460 -3.371590 3.045938 0.524725 -15.631404 12.565282 3.225387 1.741811 1.544394 2.879368 -9.288382 4.197729 -4.523102 0.213122 4.739738 3.262126 -0.005550 -0.160700 -0.081580 17.899189 -10.256665 2.768594 -26.487720 -0.637953 -12.592901 2.571724 -3.773297 0.141813 -0.200716 -4.164233 2.954042 -0.055490 0.446780 0.230250 -2.462664 -1.441163 -7.612787 -3.848685 1.729951 2.048205 7.185381 -0.052366 13.808403 1.193868 2.527900 -16.296727 3.340631 -0.644499 36.555041 -4.234060 2.547530 2.082450 -22.025640 -27.658478 10.362206 -36.731725 -8.228165 -1.365308 -36.825744 -24.410008 4.909115 -3.936386 3.167968 0.127230 0.356870 -0.167760 0.161320 21.011064 27.401293 12.785125 35.987130 3.968412 -4.586811 22.630004 25.131432 2.042001 2.106693 -1.483767 -0.147970 0.162520 0.128580 -0.046400 
0.884920 16.937300 -0.680640 -3.405929 3.235006 0.463969 -15.643055 12.596247 3.235671 1.713552 1.552316 2.895848 -9.274902 4.221908 -4.410941 0.194389 4.755310 3.255831 -0.008330 -0.175560 -0.074050 17.882285 -10.254664 2.767679 -26.256033 -0.634135 -12.684783 2.555515 -3.754198 0.115759 -0.196570 -4.132503 2.967300 -0.059330 0.444950 0.231280 -2.423989 -1.490013 -7.634984 -3.774769 1.642092 2.195941 7.352918 -0.227682 13.874421 1.270437 2.550768 -16.471238 3.362120 -0.641164 36.845686 -4.460350 2.660700 2.025490 -22.393346 -27.989593 10.473515 -36.724447 -8.183849 -1.418926 -36.859040 -24.516745 4.900313 -3.934417 3.156114 0.144930 0.356340 -0.167210 0.155820 21.239544 27.674273 12.905102 35.543575 3.818420 -4.649059 22.046720 25.190342 1.998046 2.091654 -1.471271 -0.159500 0.166370 0.135370 -0.058830 
0.903440 16.941110 -0.679430 -3.499629 3.168185 0.310529 -15.654435 12.666236 3.269234 1.735419 1.555723 2.905943 -9.341542 4.260030 -4.243689 0.181620 4.759690 3.242186 0.007920 -0.163090 -0.060860 17.857306 -10.277707 2.740991 -25.704648 -0.641528 -13.015855 2.617223 -3.741920 0.469840 -0.195961 -4.033923 2.992564 -0.054320 0.423230 0.235120 -2.372641 -1.578587 -7.675034 -3.499228 1.539227 2.572072 7.478433 -0.389513 13.794632 1.335076 2.301694 -16.607601 2.821352 -0.422105 37.486283 -4.402110 2.705930 1.446680 -22.874729 -28.170601 10.519361 -36.708425 -8.135100 -1.414080 -36.557190 -24.279455 4.739396 -3.910608 3.151336 0.173200 0.335510 -0.146360 0.154040 21.652759 27.987950 12.986616 34.812241 3.788632 -4.567450 21.692173 24.828820 1.976133 2.087172 -1.456551 -0.157360 0.164640 0.133110 -0.067050 
0.923990 16.944010 -0.677270 -3.602695 2.938158 0.266753 -15.658525 12.725151 3.300902 1.626121 1.547867 2.909815 -9.255821 4.264478 -4.147877 0.175374 4.740968 3.235848 0.027980 -0.144910 -0.037930 17.842771 -10.298615 2.719997 -24.921570 -0.615090 -13.498111 2.822292 -3.706374 0.780692 -0.190509 -3.915997 3.021886 -0.048400 0.396100 0.239750 -2.345506 -1.644702 -7.704081 -3.187229 1.438885 2.906171 7.532017 -0.531670 13.633236 1.379894 2.114505 -16.655010 2.423488 -0.231642 37.734319 -4.422930 2.845240 0.845800 -23.204407 -28.226002 10.529151 -36.704530 -8.103446 -1.344037 -36.411996 -23.715287 4.529882 -3.890616 3.154926 0.190720 0.315100 -0.125770 0.148590 21.918949 28.138535 12.969934 34.457780 3.918051 -4.490867 21.018452 24.587697 1.911946 2.091846 -1.449649 -0.148120 0.154810 0.124170 -0.074450 
